<?xml version="1.0" encoding="UTF-8"?>
<svg id="Layer_1" data-name="Layer 1" xmlns="http://www.w3.org/2000/svg" viewBox="0 0 615.14 721.77">
  <defs>
    <style>
      .cls-1 {
        fill: #000;
      }

      .cls-1, .cls-2, .cls-3, .cls-4 {
        stroke-width: 0px;
      }

      .cls-2 {
        fill: #231f20;
      }

      .cls-3 {
        fill: #eabd00;
      }

      .cls-4 {
        fill: #ec008c;
      }
    </style>
  </defs>
  <path class="cls-1" d="M615.14,708.5v.74c0,6.92-5.61,12.53-12.53,12.53h-186.99c-6.92,0-12.53-5.61-12.53-12.53,0-6.01,4.26-11.25,10.18-12.31,6.77-1.21,12.03-3.02,15.78-5.45,5.45-3.52,8.18-8.81,8.18-15.87,0-5.77-1.85-12.74-5.53-20.91-3.69-8.18-9.54-18.04-17.55-29.58l-105.89-157.69c-7.21,11.52-8.4,27.25-9.87,34.33-2.81,13.5-5.62,27.03-.65,42.1,3.81,11.59,9.78,16.66,12.5,32.9,1.54,9.24.53,13.13-.66,15.79-3.81,8.43-14.22,14.65-24.34,13.15-11.76-1.74-19.05-8.21-20.74-11.61-1.5-3-13.06-20.38.34-38.39,15.6-20.95,22.24-80.49,17.92-125.28-3.79-5.04-6.95-8.9-9.5-11.58-6.09-6.41-12.67-11.13-19.72-14.18-7.05-3.05-16.51-4.57-28.36-4.57h-12.96c-6.92,0-12.53,5.61-12.53,12.53v188.94c0,21.48.72,37.19,2.16,47.12,1.45,9.95,3.85,17.8,7.22,23.57,3.36,5.77,8.33,10.57,14.9,14.42,5.15,3.02,12.82,6.03,23,9.05,5.32,1.58,8.98,6.47,8.98,12.01v1.51c0,6.92-5.61,12.53-12.53,12.53H66.04c-6.92,0-12.53-5.61-12.53-12.53v-1.5c0-5.56,3.67-10.43,9-12.02,14.95-4.46,25.25-9.32,30.91-14.58,6.74-6.25,11.14-15.14,13.23-26.68,2.08-11.55,3.12-29.17,3.12-52.9V185.63c0-22.12-.8-38.23-2.4-48.32-1.61-10.1-4.25-17.95-7.94-23.56s-8.58-10.1-14.66-13.47c-4.79-2.65-12.26-5.54-22.4-8.68-5.26-1.63-8.86-6.48-8.86-11.98v-1.67c0-6.92,5.61-12.53,12.53-12.53h177.38c6.92,0,12.53,5.61,12.53,12.53v1.42c0,5.59-3.73,10.5-9.11,12.05-9.47,2.71-16.61,5.43-21.42,8.14-6.26,3.53-11.23,7.93-14.91,13.22-3.69,5.29-6.42,13.23-8.17,23.81-1.77,10.57-2.65,26.92-2.65,49.04l-.45,163.91c-.02,6.93,5.6,12.56,12.53,12.56h1.86c12.18,0,23.33-1.92,33.42-5.77,10.1-3.85,21.4-11.06,33.9-21.64,12.51-10.58,31.57-30.29,57.22-59.14,30.78-34.3,51.77-59.14,62.99-74.53,14.11-18.27,23.57-33.66,28.37-46.16,3.85-9.3,5.77-18.27,5.77-26.93,0-12.82-3.69-22.19-11.06-28.13-5.39-4.34-12.25-7.43-20.55-9.28-5.71-1.27-9.74-6.37-9.74-12.21v-.36c0-6.92,5.61-12.53,12.53-12.53h184.59c6.92,0,12.53,5.61,12.53,12.53v1.43c0,5.46-3.53,10.29-8.74,11.93-7.27,2.3-14.45,5.45-21.55,9.45-4.11,2.32-8.25,5-12.44,8.03-3.55,7.38-7.84,16.64-12.48,27.4-7.43,17.24-11.18,26.05-13.15,35.53-2.81,13.5-5.63,27.03-.66,42.1,3.81,11.59,9.78,16.66,12.5,32.9,1.54,9.24.54,13.13-.66,15.79-3.81,8.43-14.22,14.65-24.34,13.15-11.76-1.74-17.39-13.04-19.08-16.44-1.49-3-4.25-11.3-1.32-33.56,2.46-18.66,27.58-62.38,14.74-74.89-5.91,6.34-12.44,13.48-19.57,21.4l-155.04,174.42c-3.83,4.31-4.22,10.68-.96,15.43l169.47,246.27c18.58,26.93,33.17,45.77,43.75,56.5,10.58,10.75,20.68,18.6,30.3,23.56,6.76,3.5,13.83,6.16,21.22,7.99,5.6,1.38,9.55,6.39,9.55,12.16Z"/>
  <path class="cls-4" d="M603.55,708.5v.74c0,6.92-5.61,12.53-12.53,12.53h-186.99c-6.92,0-12.53-5.61-12.53-12.53,0-6.01,4.26-11.25,10.18-12.31,6.77-1.21,12.03-3.02,15.78-5.45,5.45-3.52,8.18-8.81,8.18-15.87,0-5.77-1.85-12.74-5.53-20.91-3.69-8.18-9.54-18.04-17.55-29.58l-105.89-157.69c-7.21,11.52-8.4,27.25-9.87,34.33-2.81,13.5-5.62,27.03-.65,42.1,3.81,11.59,9.78,16.66,12.5,32.9,1.54,9.24.53,13.13-.66,15.79-3.81,8.43-14.22,14.65-24.34,13.15-11.76-1.74-19.05-8.21-20.74-11.61-1.5-3-13.06-20.38.34-38.39,15.6-20.95,22.24-80.49,17.92-125.28-3.79-5.04-6.95-8.9-9.5-11.58-6.09-6.41-12.67-11.13-19.72-14.18-7.05-3.05-16.51-4.57-28.36-4.57h-12.96c-6.92,0-12.53,5.61-12.53,12.53v188.94c0,21.48.72,37.19,2.16,47.12,1.45,9.95,3.85,17.8,7.22,23.57,3.36,5.77,8.33,10.57,14.9,14.42,5.15,3.02,12.82,6.03,23,9.05,5.32,1.58,8.98,6.47,8.98,12.01v1.51c0,6.92-5.61,12.53-12.53,12.53H54.45c-6.92,0-12.53-5.61-12.53-12.53v-1.5c0-5.56,3.67-10.43,9-12.02,14.95-4.46,25.25-9.32,30.91-14.58,6.74-6.25,11.14-15.14,13.23-26.68,2.08-11.55,3.12-29.17,3.12-52.9V185.63c0-22.12-.8-38.23-2.4-48.32-1.61-10.1-4.25-17.95-7.94-23.56s-8.58-10.1-14.66-13.47c-4.79-2.65-12.26-5.54-22.4-8.68-5.26-1.63-8.86-6.48-8.86-11.98v-1.67c0-6.92,5.61-12.53,12.53-12.53h177.38c6.92,0,12.53,5.61,12.53,12.53v1.42c0,5.59-3.73,10.5-9.11,12.05-9.47,2.71-16.61,5.43-21.42,8.14-6.26,3.53-11.23,7.93-14.91,13.22-3.69,5.29-6.42,13.23-8.17,23.81-1.77,10.57-2.65,26.92-2.65,49.04l-.45,163.91c-.02,6.93,5.6,12.56,12.53,12.56h1.86c12.18,0,23.33-1.92,33.42-5.77,10.1-3.85,21.4-11.06,33.9-21.64,12.51-10.58,31.57-30.29,57.22-59.14,30.78-34.3,51.77-59.14,62.99-74.53,14.11-18.27,23.57-33.66,28.37-46.16,3.85-9.3,5.77-18.27,5.77-26.93,0-12.82-3.69-22.19-11.06-28.13-5.39-4.34-12.25-7.43-20.55-9.28-5.71-1.27-9.74-6.37-9.74-12.21v-.36c0-6.92,5.61-12.53,12.53-12.53h184.59c6.92,0,12.53,5.61,12.53,12.53v1.43c0,5.46-3.53,10.29-8.74,11.93-7.27,2.3-14.45,5.45-21.55,9.45-4.11,2.32-8.25,5-12.44,8.03-3.55,7.38-7.84,16.64-12.48,27.4-7.43,17.24-11.18,26.05-13.15,35.53-2.81,13.5-5.63,27.03-.66,42.1,3.81,11.59,9.78,16.66,12.5,32.9,1.54,9.24.54,13.13-.66,15.79-3.81,8.43-14.22,14.65-24.34,13.15-11.76-1.74-17.39-13.04-19.08-16.44-1.49-3-4.25-11.3-1.32-33.56,2.46-18.66,27.58-62.38,14.74-74.89-5.91,6.34-12.44,13.48-19.57,21.4l-155.04,174.42c-3.83,4.31-4.22,10.68-.96,15.43l169.47,246.27c18.58,26.93,33.17,45.77,43.75,56.5,10.58,10.75,20.68,18.6,30.3,23.56,6.76,3.5,13.83,6.16,21.22,7.99,5.6,1.38,9.55,6.39,9.55,12.16Z"/>
  <path class="cls-2" d="M129.27,80.45c67.89,3.27,68.49-7.34,68.49-7.34l9.68-48.27-2.32-15.29-21.78,11.06-4.05,15.09-21.82,15.16-4.68-37.09-14.94-10.32-17.16,19.23.8,17.49-13.67,8.58-6.66-8-9.09-20.99-15.42-11.74-11.71,20.15,1.76,17.94s4.29,9.21,8.61,21.95c4.72,13.91,8.01,23.52,18.36,20.34,4.8-1.48,30.59-8.21,35.61-7.96Z"/>
  <path class="cls-3" d="M125.49,76.99c67.89,3.27,68.49-7.34,68.49-7.34l9.68-48.27-2.32-15.29-21.78,11.06-4.05,15.09-21.82,15.16-4.68-37.09-14.94-10.32-17.16,19.23.8,17.49-13.67,8.58-6.66-8-9.09-20.99-15.42-11.74-8.75,20.39.81,17.83s2.27,9.09,6.59,21.83c4.72,13.91,8.01,23.52,18.36,20.34,4.8-1.48,30.59-8.21,35.61-7.96Z"/>
</svg>